<?xml version="1.0" encoding="utf-8"?>
<!-- Generator: Adobe Illustrator 21.0.0, SVG Export Plug-In . SVG Version: 6.00 Build 0)  -->
<svg version="1.1" id="图层_1" xmlns="http://www.w3.org/2000/svg" xmlns:xlink="http://www.w3.org/1999/xlink" x="0px" y="0px"
	 viewBox="0 0 44 44" style="enable-background:new 0 0 44 44;" xml:space="preserve">
<style type="text/css">
	.st0{display:none;fill:none;}
	.st1{fill:#146AFB;}
	.st2{fill:#E1EDFF;}
	.st3{fill:#2C2C2C;}
</style>
<rect class="st0" width="44" height="44"/>
<g>
	<path class="st1" d="M4.7,16.2c-0.4,0-0.8-0.1-1.1-0.4l-2.5-2.5c-0.6-0.6-0.6-1.5,0-2.1c0.6-0.6,1.5-0.6,2.1,0l2.5,2.5
		c0.6,0.6,0.6,1.5,0,2.1C5.5,16,5.1,16.2,4.7,16.2z"/>
	<g>
		<path class="st1" d="M36.4,43.3V26c0-8.1-6.5-14.7-14.4-14.7S7.6,17.9,7.6,26v17.3H36.4z"/>
		<polygon class="st2" points="20.7,40 22.9,30.3 16.3,30.3 22.3,19.1 20.4,27.9 27.5,27.9 		"/>
		<path class="st3" d="M6.7,15.2"/>
		<path class="st1" d="M43,43.3H1c-0.6,0-1-0.4-1-1s0.4-1,1-1h42c0.6,0,1,0.4,1,1S43.6,43.3,43,43.3z"/>
		<path class="st1" d="M39.2,17.1c-0.4,0-0.8-0.2-1.1-0.5c-0.6-0.6-0.5-1.6,0.1-2.1l2.6-2.4c0.6-0.6,1.6-0.5,2.1,0.1
			c0.6,0.6,0.5,1.6-0.1,2.1l-2.6,2.4C39.9,17,39.6,17.1,39.2,17.1z"/>
		<path class="st1" d="M22,7.3c-0.8,0-1.5-0.7-1.5-1.5V2.2c0-0.8,0.7-1.5,1.5-1.5c0.8,0,1.5,0.7,1.5,1.5v3.6
			C23.5,6.6,22.8,7.3,22,7.3z"/>
	</g>
</g>
</svg>
