<?xml version="1.0" encoding="utf-8"?>
<!-- Generator: Adobe Illustrator 21.0.0, SVG Export Plug-In . SVG Version: 6.00 Build 0)  -->
<svg version="1.1" id="图层_1" xmlns="http://www.w3.org/2000/svg" xmlns:xlink="http://www.w3.org/1999/xlink" x="0px" y="0px"
	 viewBox="0 0 40 40" style="enable-background:new 0 0 40 40;" xml:space="preserve">
<style type="text/css">
	.st0{fill:none;}
	.st1{fill:#146AFB;}
</style>
<rect class="st0" width="40" height="40"/>
<g>
	<path class="st1" d="M6.5,34.5l-6-10.8c0,0,3.5-3.2,8.8-3.2s6.8,5.2,15.1,6c8.3,0.8,10.5-1.2,10.5-1.2l-7.4,10.3l-9.8,2.9L6.5,34.5
		z M6.5,34.5"/>
	<path class="st1" d="M17.7,39.1C7.9,39.1,0,31.2,0,21.4C0,11.7,7.9,3.7,17.7,3.7h1.2v16.1c0,0.6,0.5,1.2,1.2,1.2h15.4l-0.1,1.2
		C34.9,31.7,27.1,39.1,17.7,39.1L17.7,39.1z M16.5,6.1C8.6,6.7,2.4,13.4,2.4,21.4c0,8.5,6.9,15.3,15.3,15.3
		c7.8,0,14.2-5.8,15.2-13.4H20.1c-2,0-3.5-1.6-3.5-3.5L16.5,6.1L16.5,6.1z M16.5,6.1"/>
	<path class="st1" d="M40,19.1H21.1V0.9h1.2c9.8,0,17.7,7.6,17.7,17V19.1z M23.5,16.7h14.1C37,9.6,31,3.8,23.5,3.3V16.7z M23.5,16.7
		"/>
</g>
</svg>
