<?xml version="1.0" encoding="utf-8"?>
<!-- Generator: Adobe Illustrator 21.0.0, SVG Export Plug-In . SVG Version: 6.00 Build 0)  -->
<svg version="1.1" id="图层_1" xmlns="http://www.w3.org/2000/svg" xmlns:xlink="http://www.w3.org/1999/xlink" x="0px" y="0px"
	 viewBox="0 0 44 44" style="enable-background:new 0 0 44 44;" xml:space="preserve">
<style type="text/css">
	.st0{display:none;fill:none;}
	.st1{fill:#828DA5;}
	.st2{fill:#146AFB;}
	.st3{fill:#E1EDFF;}
</style>
<rect class="st0" width="44" height="44"/>
<g>
	<g>
		<path class="st1" d="M20.6,11.9c5.5,0,10,4.5,10,10s-4.5,10-10,10s-10-4.5-10-10S15.1,11.9,20.6,11.9 M20.6,9.9
			c-6.6,0-12,5.4-12,12s5.4,12,12,12s12-5.4,12-12S27.2,9.9,20.6,9.9L20.6,9.9z"/>
		<path class="st1" d="M33.4,37.1c-0.3,0-0.5-0.1-0.7-0.3l-5-5c-0.4-0.4-0.4-1,0-1.4s1-0.4,1.4,0l5,5c0.4,0.4,0.4,1,0,1.4
			C33.9,37,33.7,37.1,33.4,37.1z"/>
	</g>
	<g>
		<path class="st2" d="M15,4H3C2.4,4,2,3.6,2,3s0.4-1,1-1h12c0.6,0,1,0.4,1,1S15.6,4,15,4z"/>
		<path class="st2" d="M3,16c-0.6,0-1-0.4-1-1V3c0-0.6,0.4-1,1-1s1,0.4,1,1v12C4,15.6,3.6,16,3,16z"/>
	</g>
	<g>
		<path class="st2" d="M15,42H3c-0.6,0-1-0.4-1-1s0.4-1,1-1h12c0.6,0,1,0.4,1,1S15.6,42,15,42z"/>
		<path class="st2" d="M3,42c-0.6,0-1-0.4-1-1V29c0-0.6,0.4-1,1-1s1,0.4,1,1v12C4,41.6,3.6,42,3,42z"/>
	</g>
	<g>
		<path class="st2" d="M41,4H29c-0.6,0-1-0.4-1-1s0.4-1,1-1h12c0.6,0,1,0.4,1,1S41.6,4,41,4z"/>
		<path class="st2" d="M41,16c-0.6,0-1-0.4-1-1V3c0-0.6,0.4-1,1-1s1,0.4,1,1v12C42,15.6,41.6,16,41,16z"/>
	</g>
	<g>
		<path class="st2" d="M41,42H29c-0.6,0-1-0.4-1-1s0.4-1,1-1h12c0.6,0,1,0.4,1,1S41.6,42,41,42z"/>
		<path class="st2" d="M41,42c-0.6,0-1-0.4-1-1V29c0-0.6,0.4-1,1-1s1,0.4,1,1v12C42,41.6,41.6,42,41,42z"/>
	</g>
	<g>
		<g>
			<circle class="st3" cx="20.6" cy="21.9" r="12"/>
			<path class="st2" d="M20.6,11.9c5.5,0,10,4.5,10,10s-4.5,10-10,10s-10-4.5-10-10S15.1,11.9,20.6,11.9 M20.6,9.9
				c-6.6,0-12,5.4-12,12s5.4,12,12,12s12-5.4,12-12S27.2,9.9,20.6,9.9L20.6,9.9z"/>
		</g>
		<path class="st2" d="M33.4,37.1c-0.3,0-0.5-0.1-0.7-0.3l-5-5c-0.4-0.4-0.4-1,0-1.4s1-0.4,1.4,0l5,5c0.4,0.4,0.4,1,0,1.4
			C33.9,37,33.7,37.1,33.4,37.1z"/>
	</g>
</g>
</svg>
