<?xml version="1.0" encoding="utf-8"?>
<!-- Generator: Adobe Illustrator 21.0.0, SVG Export Plug-In . SVG Version: 6.00 Build 0)  -->
<svg version="1.1" id="图层_1" xmlns="http://www.w3.org/2000/svg" xmlns:xlink="http://www.w3.org/1999/xlink" x="0px" y="0px"
	 viewBox="0 0 44 44" style="enable-background:new 0 0 44 44;" xml:space="preserve">
<style type="text/css">
	.st0{display:none;fill:none;}
	.st1{fill:#828DA5;}
	.st2{fill:#E2E4E9;}
</style>
<rect class="st0" width="44" height="44"/>
<g>
	<g>
		<path class="st1" d="M22,4.9C22,5,22.1,5,22,4.9l4.8,4.8c3.5,3.5,7.1,7.1,10.6,10.6l-0.7,0h-0.6h-2v2V23c0,1.5,0,2.9,0,4.4
			c0,3.8,0,7.7,0,11.6c0,0.1,0,0.2,0,0.2c0,0-0.1,0-0.2,0c0,0,0,0,0,0c-0.8,0-1.7,0-2.7,0c-0.7,0-1.3,0-2,0c-0.2,0-0.3,0-0.5,0
			l0-0.9c0-1.8,0-3.5,0-5.3c0-3.1-1.9-5.5-4.7-5.9c-0.6-0.1-1.3-0.2-2-0.2c-0.7,0-1.4,0.1-2,0.2c-2.7,0.4-4.7,2.8-4.7,5.7
			c0,1.8,0,3.6,0,5.5l0,0.9l-2.5,0l-2.7,0c0,0-0.1,0-0.1,0c0,0,0-0.1,0-0.2c0-3.9,0-7.7,0-11.6l0-4.3v-0.7v-1.9L8,20.3l-0.2,0
			c-0.2,0-0.3,0-0.4,0l-0.8,0c5.1-5.1,10.1-10.1,15.2-15.2C21.9,5.1,21.9,5,22,4.9 M22,2.9c-0.4,0-0.8,0.1-1.2,0.4
			c-0.2,0.1-0.3,0.3-0.5,0.4C15,9.1,9.7,14.5,4.3,19.8C4.2,20,4,20.1,3.9,20.3c-0.4,0.5-0.4,1-0.3,1.6c0.1,0.3,0.2,0.5,0.6,0.5
			c0,0,0,0,0,0c0.5,0,0.9,0,1.4,0c0.6,0,1.2,0,1.8,0c0.2,0,0.3,0,0.5,0c0,0.2,0,0.5,0,0.7c0,5.3,0,10.6,0,15.9
			c0,1.4,0.7,2.2,2.1,2.2c0.9,0,1.8,0,2.7,0c1.3,0,2.7,0,4,0c0.2,0,0.3,0,0.5,0c0-0.2,0-0.4,0-0.6c0-2.6,0-5.2,0-7.8
			c0-1.8,1.2-3.4,3-3.7c0.6-0.1,1.2-0.1,1.7-0.1c0.6,0,1.1,0,1.7,0.1c1.9,0.3,3,1.9,3,3.9c0,2.5,0,5,0,7.6c0,0.2,0,0.4,0,0.6
			c0.2,0,0.4,0,0.6,0c1.3,0,2.6,0,3.9,0c0.9,0,1.8,0,2.7,0c0,0,0.1,0,0.1,0c1.3,0,2.2-0.8,2.2-2.3c0-5.3,0-10.6,0-15.9
			c0-0.2,0-0.4,0-0.6c0.2,0,0.4,0,0.6,0c0.6,0,1.2,0,1.8,0c0.5,0,0.9,0,1.4,0c0,0,0,0,0,0c0.3,0,0.5-0.2,0.6-0.4
			c0.2-0.8,0-1.4-0.6-2C34.4,14.5,28.9,9,23.5,3.6c-0.1-0.1-0.2-0.2-0.4-0.3C22.8,3,22.4,2.9,22,2.9L22,2.9z"/>
	</g>
	<path class="st2" d="M13.5,21.3c-0.5,0-1-0.2-1.4-0.5c-0.8-0.7-0.9-2-0.1-2.8l7-7.6c0.7-0.8,2-0.9,2.8-0.1s0.9,2,0.1,2.8l-7,7.6
		C14.5,21.1,14,21.3,13.5,21.3z"/>
</g>
</svg>
