<?xml version="1.0" encoding="utf-8"?>
<!-- Generator: Adobe Illustrator 21.0.0, SVG Export Plug-In . SVG Version: 6.00 Build 0)  -->
<svg version="1.1" id="图层_1" xmlns="http://www.w3.org/2000/svg" xmlns:xlink="http://www.w3.org/1999/xlink" x="0px" y="0px"
	 viewBox="0 0 40 40" style="enable-background:new 0 0 40 40;" xml:space="preserve">
<style type="text/css">
	.st0{display:none;fill:none;}
	.st1{fill:#146AFB;}
</style>
<rect class="st0" width="40" height="40"/>
<g>
	<path class="st1" d="M33.4,39H9.5V6.8h10.2v13.3l5.2-3.9l5.6,3.9V6.8h5.8v29.2C36.3,37.7,35,39,33.4,39L33.4,39z M33.4,39"/>
	<g>
		<path class="st1" d="M24.9,14.3l-3.7,2.9V5.4H29v11.9L24.9,14.3z M24.9,14.3"/>
		<path class="st1" d="M5.1,3.9v1.5c0,0.8,0.7,1.5,1.5,1.5H8V39H6.6c-1.6,0-2.9-1.3-2.9-2.9V3.9C3.7,2.3,5,1,6.6,1h26.8
			c1.1,0,2,0.6,2.5,1.5H6.6C5.8,2.5,5.1,3.1,5.1,3.9L5.1,3.9z M5.1,3.9"/>
	</g>
</g>
</svg>
