<?xml version="1.0" encoding="utf-8"?>
<!-- Generator: Adobe Illustrator 21.0.0, SVG Export Plug-In . SVG Version: 6.00 Build 0)  -->
<svg version="1.1" id="图层_1" xmlns="http://www.w3.org/2000/svg" xmlns:xlink="http://www.w3.org/1999/xlink" x="0px" y="0px"
	 viewBox="0 0 40 40" style="enable-background:new 0 0 40 40;" xml:space="preserve">
<style type="text/css">
	.st0{display:none;fill:none;}
	.st1{fill:#B7B5B5;}
</style>
<rect class="st0" width="40" height="40"/>
<g>
	<path class="st1" d="M10,39c-2.5,0-4.7-1-6.3-2.6C2,34.7,1,32.5,1,30c0-2.5,1-4.7,2.6-6.3l0,0l0,0c1.6-1.6,3.9-2.6,6.3-2.6h8
		c0.3,0,0.5,0.1,0.7,0.3c0.2,0.2,0.3,0.4,0.3,0.7v8c0,2.4-1,4.7-2.6,6.3c0,0,0,0-0.1,0.1C14.7,38,12.4,39,10,39L10,39z M10,39"/>
	<path class="st1" d="M14.9,35L14.9,35c1.3-1.3,2-3,2-4.9v-7h-7c-1.9,0-3.6,0.7-4.9,2v0c-1.3,1.3-2,3-2,4.9s0.8,3.7,2,4.9
		c1.3,1.3,3.1,2,4.9,2C11.8,37,13.6,36.3,14.9,35L14.9,35z M27.3,17H30c1.9,0,3.6-0.7,4.9-2l0,0c1.2-1.3,2-3,2-4.9
		c0-1.9-0.7-3.6-2-4.9c-1.3-1.3-3.1-2-4.9-2c-1.9,0-3.6,0.7-4.9,2v0c-1.3,1.3-2,3-2,4.9v8c0,0.5-0.4,1-1,1c-0.5,0-1-0.4-1-1v-8
		c0-2.5,1-4.7,2.6-6.3l0,0l0,0C25.3,2,27.6,1,30,1c2.5,0,4.7,1,6.3,2.6l0,0C38,5.3,39,7.5,39,10c0,2.4-1,4.7-2.6,6.3
		c0,0,0,0-0.1,0.1c-1.6,1.6-3.9,2.6-6.3,2.6h-2.7c-0.5,0-1-0.4-1-1C26.3,17.4,26.8,17,27.3,17L27.3,17z M10,3C8.1,3,6.4,3.7,5.1,5
		l0,0c-1.3,1.3-2,3-2,4.9c0,1.9,0.8,3.7,2,4.9c1.3,1.3,3,2,4.9,2h7v-7c0-1.9-0.7-3.6-2-4.9C13.6,3.7,11.8,3,10,3L10,3z M10,3"/>
	<path class="st1" d="M16.3,3.7L16.3,3.7c1.6,1.6,2.6,3.9,2.6,6.3v8c0,0.5-0.4,1-1,1h-8c-2.5,0-4.7-1-6.3-2.6C2,14.7,1,12.5,1,10
		c0-2.5,1-4.7,2.6-6.3c0,0,0,0,0.1-0.1C5.3,2,7.5,1,10,1C12.4,1,14.7,2,16.3,3.7L16.3,3.7z M30,37c1.9,0,3.6-0.7,4.9-2h0
		c1.3-1.3,2-3,2-4.9c0-1.9-0.7-3.6-2-4.9c-1.3-1.3-3.1-2-4.9-2h-7v7c0,1.9,0.8,3.7,2,4.9C26.4,36.3,28.2,37,30,37L30,37z M30,37"/>
	<path class="st1" d="M23.7,36.3c-1.6-1.6-2.6-3.9-2.6-6.3v-8c0-0.5,0.4-1,1-1h8c2.5,0,4.7,1,6.3,2.6l0,0C38,25.3,39,27.5,39,30
		c0,2.5-1,4.7-2.6,6.3l0,0l0,0C34.8,38,32.5,39,30,39C27.6,39,25.3,38,23.7,36.3L23.7,36.3z M23.7,36.3"/>
</g>
</svg>
