<?xml version="1.0" encoding="utf-8"?>
<!-- Generator: Adobe Illustrator 21.0.0, SVG Export Plug-In . SVG Version: 6.00 Build 0)  -->
<svg version="1.1" id="图层_1" xmlns="http://www.w3.org/2000/svg" xmlns:xlink="http://www.w3.org/1999/xlink" x="0px" y="0px"
	 viewBox="0 0 32 32" style="enable-background:new 0 0 32 32;" xml:space="preserve">
<style type="text/css">
	.st0{fill:#F89B09;}
</style>
<g>
	<path class="st0" d="M27.1,4.4c-0.2-0.2-0.4-0.3-0.6-0.3c-0.2,0-0.5,0.1-0.6,0.3c-0.2,0.2-0.3,0.4-0.3,0.6c0,0.3,0.1,0.5,0.3,0.6
		c2.6,2.6,4.2,6.1,4.2,10.1c0,4-1.7,7.6-4.3,10.2c-0.2,0.2-0.4,0.4-0.4,0.7c0,0.5,0.4,0.9,0.9,0.9c0.3,0,0.5-0.2,0.7-0.4
		c3.2-2.9,5-7,4.9-11.3C32,11.5,30.2,7.4,27.1,4.4L27.1,4.4z M27.1,4.4"/>
	<path class="st0" d="M23.5,8.3c-0.2-0.2-0.4-0.4-0.7-0.4c-0.5,0-0.9,0.4-0.9,0.9c0,0.3,0.1,0.4,0.3,0.6c1.7,1.7,2.7,4,2.7,6.4
		c0,2.5-1.1,4.8-2.7,6.4c-0.2,0.2-0.4,0.4-0.4,0.7c0,0.5,0.4,0.9,0.9,0.9c0.3,0,0.5-0.2,0.7-0.4c2.1-2,3.3-4.7,3.3-7.6
		C26.7,12.9,25.5,10.2,23.5,8.3L23.5,8.3z M23.5,8.3"/>
	<path class="st0" d="M18.6,0c-0.1,0-0.3,0-0.3,0.1c-0.5,0.1-1,0.3-1.4,0.7L8.9,8.7H3.5C1.6,8.7,0,10.3,0,12.3v7.1
		c0,2,1.6,3.5,3.5,3.5h5l8.2,8.2c0.4,0.4,0.9,0.6,1.4,0.7c0.1,0.1,0.3,0.1,0.3,0.1c0.5,0,0.9-0.4,0.9-0.9V0.9
		C19.4,0.4,19.1,0,18.6,0z M17.7,29.3l-8.1-8.1h-6c-1,0-1.8-0.9-1.8-1.9v-7.1c0-1,0.8-1.8,1.8-1.8h6.4l7.8-7.7V29.3z"/>
</g>
</svg>
