<?xml version="1.0" encoding="utf-8"?>
<!-- Generator: Adobe Illustrator 21.0.0, SVG Export Plug-In . SVG Version: 6.00 Build 0)  -->
<svg version="1.1" id="图层_1" xmlns="http://www.w3.org/2000/svg" xmlns:xlink="http://www.w3.org/1999/xlink" x="0px" y="0px"
	 viewBox="0 0 44 44" style="enable-background:new 0 0 44 44;" xml:space="preserve">
<style type="text/css">
	.st0{display:none;fill:none;}
	.st1{fill:#D0D2D6;}
	.st2{fill:#8994AB;}
</style>
<rect class="st0" width="44" height="44"/>
<g>
	<path class="st1" d="M8.2,19h6.1c2.8,0,5-2.3,5-5H3.2C3.2,16.8,5.5,19,8.2,19z"/>
	<path class="st1" d="M8.2,41h6.1c2.8,0,5-2.3,5-5H3.2C3.2,38.8,5.5,41,8.2,41z"/>
	<path class="st1" d="M29.7,41h6.1c2.8,0,5-2.3,5-5H24.7C24.7,38.8,26.9,41,29.7,41z"/>
	<path class="st2" d="M14.3,5c1.7,0,3,1.3,3,3V14c0,1.7-1.3,3-3,3H8.2c-1.7,0-3-1.3-3-3V8c0-1.7,1.3-3,3-3H14.3 M14.3,3H8.2
		c-2.8,0-5,2.3-5,5V14c0,2.8,2.3,5,5,5h6.1c2.8,0,5-2.3,5-5V8C19.3,5.2,17.1,3,14.3,3L14.3,3z"/>
	<path class="st2" d="M14.3,27c1.7,0,3,1.3,3,3V36c0,1.7-1.3,3-3,3H8.2c-1.7,0-3-1.3-3-3V30c0-1.7,1.3-3,3-3H14.3 M14.3,25H8.2
		c-2.8,0-5,2.3-5,5V36c0,2.8,2.3,5,5,5h6.1c2.8,0,5-2.3,5-5V30C19.3,27.2,17.1,25,14.3,25L14.3,25z"/>
	<path class="st2" d="M35.8,27c1.7,0,3,1.3,3,3V36c0,1.7-1.3,3-3,3h-6.1c-1.7,0-3-1.3-3-3V30c0-1.7,1.3-3,3-3H35.8 M35.8,25h-6.1
		c-2.8,0-5,2.3-5,5V36c0,2.8,2.3,5,5,5h6.1c2.8,0,5-2.3,5-5V30C40.8,27.2,38.5,25,35.8,25L35.8,25z"/>
	<path class="st2" d="M32.7,5.9c0.8,0,1.6,0.3,2.1,0.9l3,3c0.6,0.6,0.9,1.3,0.9,2.1c0,0.8-0.3,1.6-0.9,2.1l-3,3
		c-0.6,0.6-1.3,0.9-2.1,0.9s-1.6-0.3-2.1-0.9l-3-3c-0.6-0.6-0.9-1.3-0.9-2.1c0-0.8,0.3-1.6,0.9-2.1l3-3C31.2,6.2,31.9,5.9,32.7,5.9
		 M32.7,3.9c-1.3,0-2.6,0.5-3.5,1.5l-3,3c-1.9,1.9-1.9,5.1,0,7.1l3,3c1,1,2.3,1.5,3.5,1.5c1.3,0,2.6-0.5,3.5-1.5l3-3
		c1.9-1.9,1.9-5.1,0-7.1l-3-3C35.3,4.4,34,3.9,32.7,3.9L32.7,3.9z"/>
</g>
</svg>
