<?xml version="1.0" encoding="utf-8"?>
<!-- Generator: Adobe Illustrator 21.0.0, SVG Export Plug-In . SVG Version: 6.00 Build 0)  -->
<svg version="1.1" id="图层_1" xmlns="http://www.w3.org/2000/svg" xmlns:xlink="http://www.w3.org/1999/xlink" x="0px" y="0px"
	 viewBox="0 0 44 44" style="enable-background:new 0 0 44 44;" xml:space="preserve">
<style type="text/css">
	.st0{display:none;fill:none;}
	.st1{fill:#146AFB;}
	.st2{fill:#CADEFF;}
</style>
<rect class="st0" width="44" height="44"/>
<g>
	<path class="st1" d="M35.8,41h-6.1c-2.8,0-5-2.3-5-5V30c0-2.8,2.3-5,5-5h6.1c2.8,0,5,2.3,5,5V36C40.8,38.8,38.5,41,35.8,41z"/>
	<path class="st1" d="M14.3,41H8.2c-2.8,0-5-2.3-5-5V30c0-2.8,2.3-5,5-5h6.1c2.8,0,5,2.3,5,5V36C19.3,38.8,17.1,41,14.3,41z"/>
	<path class="st1" d="M14.3,19H8.2c-2.8,0-5-2.3-5-5V8c0-2.8,2.3-5,5-5h6.1c2.8,0,5,2.3,5,5V14C19.3,16.8,17.1,19,14.3,19z"/>
	<path class="st2" d="M8.2,19h6.1c2.8,0,5-2.3,5-5H3.2C3.2,16.8,5.5,19,8.2,19z"/>
	<path class="st2" d="M8.2,41h6.1c2.8,0,5-2.3,5-5H3.2C3.2,38.8,5.5,41,8.2,41z"/>
	<path class="st2" d="M29.7,41h6.1c2.8,0,5-2.3,5-5H24.7C24.7,38.8,26.9,41,29.7,41z"/>
	<path class="st1" d="M29.2,18.5l-3-3c-1.9-1.9-1.9-5.1,0-7.1l3-3c1.9-1.9,5.1-1.9,7.1,0l3,3c1.9,1.9,1.9,5.1,0,7.1l-3,3
		C34.3,20.4,31.1,20.4,29.2,18.5z"/>
</g>
</svg>
