<?xml version="1.0" encoding="utf-8"?>
<!-- Generator: Adobe Illustrator 21.0.0, SVG Export Plug-In . SVG Version: 6.00 Build 0)  -->
<svg version="1.1" id="图层_1" xmlns="http://www.w3.org/2000/svg" xmlns:xlink="http://www.w3.org/1999/xlink" x="0px" y="0px"
	 viewBox="0 0 40 40" style="enable-background:new 0 0 40 40;" xml:space="preserve">
<style type="text/css">
	.st0{display:none;fill:none;}
	.st1{fill:#146AFB;}
</style>
<rect class="st0" width="40" height="40"/>
<g>
	<path class="st1" d="M12.2,10.4c0.4,0,0.8-0.2,1-0.4c0.3-0.3,0.4-0.7,0.4-1V1.5C13.7,0.7,13,0,12.2,0c-0.8,0-1.5,0.7-1.5,1.5v7.4
		C10.7,9.7,11.4,10.4,12.2,10.4L12.2,10.4z M27.7,10.4c0.4,0,0.8-0.2,1-0.4c0.3-0.3,0.4-0.7,0.4-1V1.5c0-0.8-0.7-1.5-1.5-1.5
		c-0.8,0-1.5,0.7-1.5,1.5v7.4C26.2,9.7,26.9,10.4,27.7,10.4L27.7,10.4z M27.7,10.4"/>
	<path class="st1" d="M37,6.8h-4.9v2.1c0,2.4-2,4.4-4.4,4.4c-2.4,0-4.4-2-4.4-4.4V6.8h-6.6v2.1c0,2.4-2,4.4-4.4,4.4s-4.4-2-4.4-4.4
		V6.8H3c-1.6,0-2.9,1.3-2.9,2.9V37C0.1,38.6,1.4,40,3,40H37c1.6,0,2.9-1.3,2.9-2.9V9.7C39.9,8.1,38.6,6.8,37,6.8L37,6.8z M15.5,31.5
		c0,0.8-0.7,1.5-1.5,1.5c-0.8,0-1.5-0.7-1.5-1.5V19.7c0-0.8,0.7-1.5,1.5-1.5c0.8,0,1.5,0.7,1.5,1.5V31.5z M27.3,31.5
		c0,0.8-0.7,1.5-1.5,1.5h-5.9c-0.4,0-0.8-0.2-1-0.4c-0.3-0.3-0.4-0.7-0.4-1V19.7c0-0.4,0.2-0.8,0.4-1c0.3-0.3,0.7-0.4,1-0.4h5.9
		c0.8,0,1.5,0.7,1.5,1.5V31.5z M27.3,31.5"/>
	<rect x="21.4" y="21.2" class="st1" width="3" height="8.8"/>
</g>
</svg>
