<?xml version="1.0" encoding="utf-8"?>
<!-- Generator: Adobe Illustrator 21.0.0, SVG Export Plug-In . SVG Version: 6.00 Build 0)  -->
<svg version="1.1" id="图层_1" xmlns="http://www.w3.org/2000/svg" xmlns:xlink="http://www.w3.org/1999/xlink" x="0px" y="0px"
	 viewBox="0 0 44 44" style="enable-background:new 0 0 44 44;" xml:space="preserve">
<style type="text/css">
	.st0{fill:none;}
	.st1{fill:#146AFB;}
	.st2{fill:#CADEFF;}
</style>
<rect class="st0" width="44" height="44"/>
<g>
	<g>
		<g>
			<path class="st1" d="M36.1,22.3c0,0.2,0,0.4,0,0.6c0,5.3,0,10.6,0,15.9c0,1.5-1,2.3-2.3,2.3c-2.2-0.1-4.4,0-6.5,0
				c-0.2,0-0.4,0-0.6,0c0-0.2,0-0.4,0-0.6c0-2.5,0-5,0-7.6c0-2.1-1.1-3.6-3-3.9c-1.1-0.2-2.3-0.2-3.4,0c-1.8,0.3-3,1.8-3,3.7
				c0,2.6,0,5.2,0,7.8c0,0.2,0,0.4,0,0.6c-0.2,0-0.3,0-0.5,0c-2.3,0-4.5,0-6.8,0c-1.4,0-2.1-0.7-2.1-2.2c0-5.3,0-10.6,0-15.9
				c0-0.2,0-0.4,0-0.7c-0.2,0-0.4,0-0.5,0c-1,0-2.1,0-3.1,0c-0.4,0-0.6-0.1-0.6-0.5c-0.1-0.6,0-1.1,0.3-1.6C4,20.1,4.2,20,4.3,19.8
				C9.7,14.5,15,9.1,20.4,3.7c0.2-0.2,0.3-0.3,0.5-0.4c0.7-0.6,1.6-0.6,2.3,0c0.1,0.1,0.2,0.2,0.4,0.3C28.9,9,34.4,14.5,39.8,19.9
				c0.6,0.6,0.8,1.2,0.6,2c-0.1,0.3-0.2,0.5-0.6,0.4c-1,0-2.1,0-3.1,0C36.5,22.3,36.3,22.3,36.1,22.3z"/>
		</g>
	</g>
	<g>
		<path class="st2" d="M13.5,21.3c-0.5,0-1-0.2-1.4-0.5c-0.8-0.7-0.9-2-0.1-2.8l7-7.6c0.7-0.8,2-0.9,2.8-0.1c0.8,0.7,0.9,2,0.1,2.8
			l-7,7.6C14.5,21.1,14,21.3,13.5,21.3z"/>
	</g>
</g>
</svg>
