<?xml version="1.0" encoding="utf-8"?>
<!-- Generator: Adobe Illustrator 21.0.0, SVG Export Plug-In . SVG Version: 6.00 Build 0)  -->
<svg version="1.1" id="图层_1" xmlns="http://www.w3.org/2000/svg" xmlns:xlink="http://www.w3.org/1999/xlink" x="0px" y="0px"
	 viewBox="0 0 44 44" style="enable-background:new 0 0 44 44;" xml:space="preserve">
<style type="text/css">
	.st0{display:none;fill:none;}
	.st1{fill:#D0D2D6;}
	.st2{fill:#828DA5;}
</style>
<rect class="st0" width="44" height="44"/>
<g>
	<path class="st1" d="M3.4,35v1.7c0,0,0,3.3,3.9,3.3h30.6c0,0,2.6,0,2.6-3.3V35H3.4z"/>
	<path class="st2" d="M22,6c4.2,0,7.7,3.4,7.7,7.7s-3.4,7.7-7.7,7.7s-7.7-3.4-7.7-7.7S17.8,6,22,6 M22,4c-5.3,0-9.7,4.3-9.7,9.7
		s4.3,9.7,9.7,9.7s9.7-4.3,9.7-9.7S27.4,4,22,4L22,4z"/>
	<path class="st2" d="M36.7,27.7c0.7,0,1.2,0.2,1.5,0.5c0.5,0.5,0.5,1.5,0.4,1.8l0,0.1v0.1v6.5c0,1.2-0.5,1.2-0.7,1.3H7.4
		c-1.2,0-1.9-0.4-1.9-1.3v-6.5c0-2.2,1.2-2.5,1.9-2.6H36.7 M36.7,25.7H7.4c0,0-3.9,0-3.9,4.6v6.5c0,0,0,3.3,3.9,3.3H38
		c0,0,2.6,0,2.6-3.3v-6.5C40.6,30.3,41.2,25.7,36.7,25.7L36.7,25.7z"/>
</g>
</svg>
