<?xml version="1.0" encoding="utf-8"?>
<!-- Generator: Adobe Illustrator 21.0.0, SVG Export Plug-In . SVG Version: 6.00 Build 0)  -->
<svg version="1.1" id="图层_1" xmlns="http://www.w3.org/2000/svg" xmlns:xlink="http://www.w3.org/1999/xlink" x="0px" y="0px"
	 viewBox="0 0 36 36" style="enable-background:new 0 0 36 36;" xml:space="preserve">
<style type="text/css">
	.st0{fill:#1476FB;}
</style>
<g>
	<path class="st0" d="M18,33.7H3.5c-0.3,0-0.7-0.2-0.8-0.5c-0.2-0.3-0.1-0.7,0-0.9L5,28.9C1.8,25.9,0,22.1,0,18
		C0,9.3,8.1,2.3,18,2.3s18,7,18,15.7C36,26.7,27.9,33.7,18,33.7L18,33.7z M5.2,31.8H18c8.9,0,16.2-6.2,16.2-13.8
		c0-7.6-7.2-13.8-16.2-13.8S1.8,10.4,1.8,18c0,3.8,1.8,7.4,5,10c0.3,0.2,0.4,0.7,0.3,1c0,0.1-0.1,0.3-0.2,0.3L5.2,31.8z M5.2,31.8"
		/>
	<path class="st0" d="M7.2,18c0,0.9,0.7,1.6,1.6,1.6c0.9,0,1.6-0.7,1.6-1.6c0-0.9-0.7-1.6-1.6-1.6C7.9,16.4,7.2,17.1,7.2,18L7.2,18z
		 M7.2,18"/>
	<path class="st0" d="M16.4,18c0,0.6,0.3,1.1,0.8,1.4c0.5,0.3,1.1,0.3,1.6,0c0.5-0.3,0.8-0.8,0.8-1.4c0-0.9-0.7-1.6-1.6-1.6
		S16.4,17.1,16.4,18L16.4,18z M16.4,18"/>
	<path class="st0" d="M25.6,18c0,0.6,0.3,1.1,0.8,1.4c0.5,0.3,1.1,0.3,1.6,0c0.5-0.3,0.8-0.8,0.8-1.4c0-0.6-0.3-1.1-0.8-1.4
		c-0.5-0.3-1.1-0.3-1.6,0C25.9,16.9,25.6,17.4,25.6,18L25.6,18z M25.6,18"/>
</g>
</svg>
