<?xml version="1.0" encoding="utf-8"?>
<!-- Generator: Adobe Illustrator 21.0.0, SVG Export Plug-In . SVG Version: 6.00 Build 0)  -->
<svg version="1.1" id="图层_1" xmlns="http://www.w3.org/2000/svg" xmlns:xlink="http://www.w3.org/1999/xlink" x="0px" y="0px"
	 viewBox="0 0 40 40" style="enable-background:new 0 0 40 40;" xml:space="preserve">
<style type="text/css">
	.st0{display:none;fill:none;}
	.st1{fill:#146AFB;}
</style>
<rect class="st0" width="40" height="40"/>
<path class="st1" d="M39.1,18.2c0.8-0.8,1-1.9,0.7-2.9c-0.3-1-1.2-1.8-2.3-1.9l-10.1-1.5c-0.2,0-0.4-0.1-0.4-0.3l-4.5-9.2
	c-0.5-1-1.4-1.6-2.5-1.6c-1.1,0-2,0.6-2.5,1.6L13,11.6c-0.1,0.2-0.2,0.3-0.4,0.3L2.4,13.4c-1.1,0.2-1.9,0.9-2.3,1.9
	c-0.3,1-0.1,2.1,0.7,2.9l7.3,7.1c0.1,0.1,0.2,0.3,0.2,0.5L6.6,35.9c-0.2,1.1,0.2,2.1,1.1,2.8c0.9,0.6,2,0.7,3,0.2l9-4.8
	c0.2-0.1,0.4-0.1,0.5,0l9,4.7c0.4,0.2,0.9,0.3,1.3,0.3c0.6,0,1.2-0.2,1.6-0.5c0.9-0.6,1.3-1.7,1.1-2.8l-1.7-10.1
	c0-0.2,0-0.4,0.2-0.5L39.1,18.2z M39.1,18.2"/>
</svg>
