<?xml version="1.0" encoding="utf-8"?>
<!-- Generator: Adobe Illustrator 21.0.0, SVG Export Plug-In . SVG Version: 6.00 Build 0)  -->
<svg version="1.1" id="图层_1" xmlns="http://www.w3.org/2000/svg" xmlns:xlink="http://www.w3.org/1999/xlink" x="0px" y="0px"
	 viewBox="0 0 40 40" style="enable-background:new 0 0 40 40;" xml:space="preserve">
<style type="text/css">
	.st0{display:none;fill:none;}
	.st1{fill:#146AFB;}
</style>
<rect class="st0" width="40" height="40"/>
<g>
	<g>
		<path class="st1" d="M1,2v9.3h31.6V2H1z M5.6,8.1c-0.8,0-1.5-0.7-1.5-1.5c0-0.8,0.7-1.5,1.5-1.5c0.8,0,1.5,0.7,1.5,1.5
			C7.1,7.4,6.4,8.1,5.6,8.1L5.6,8.1z M17.9,23.5c0.1-0.2,0.2-0.5,0.4-0.7c0.1-0.2,0.3-0.4,0.5-0.5c0.1-0.1,0.3-0.1,0.4-0.1
			c0.1,0,0.3,0,0.4,0.1c0.5,0.2,1,0.3,1.6,0.2c0.5-0.1,1-0.3,1.4-0.7c0.2-0.2,0.4-0.4,0.4-0.7c0.1-0.3,0.2-0.6,0.2-0.9
			c0-0.3,0-0.5,0-0.8c0-0.2,0-0.4-0.1-0.5c0-0.1-0.1-0.2-0.1-0.4c0-0.1,0-0.2,0-0.4c0.1-0.2,0.3-0.4,0.5-0.6
			c0.3-0.2,0.5-0.3,0.8-0.4c0.3-0.1,0.6-0.2,0.9-0.3c0.3-0.1,0.5-0.1,0.7-0.1c0.2,0,0.4,0.1,0.5,0.2c0.1,0.1,0.2,0.3,0.3,0.4
			c0.2,0.4,0.5,0.8,0.9,1.2c0.4,0.3,0.9,0.5,1.5,0.5c0.6,0,1.1-0.2,1.6-0.5c0.5-0.3,0.8-0.7,1-1.2c0.1-0.1,0.2-0.3,0.3-0.4
			c0.1-0.1,0.3-0.2,0.4-0.2c0.1,0,0.1,0,0.2,0v-2.5H1v9.3h16.8C17.8,23.6,17.8,23.5,17.9,23.5L17.9,23.5z M5.6,20.5
			c-0.8,0-1.5-0.7-1.5-1.5c0-0.8,0.7-1.5,1.5-1.5c0.8,0,1.5,0.7,1.5,1.5C7.1,19.8,6.4,20.5,5.6,20.5L5.6,20.5z M5.6,20.5"/>
		<path class="st1" d="M37.4,29.8c0.2,0.3,0.6,0.6,1,0.7c0.1,0.1,0.2,0.1,0.2,0.2c0.1,0.1,0.2,0.3,0.3,0.5c0,0.2,0,0.4,0,0.6
			c0,0.2-0.1,0.5-0.2,0.7c-0.1,0.2-0.2,0.4-0.3,0.6c-0.1,0.2-0.3,0.3-0.4,0.4c-0.2,0.1-0.3,0.1-0.4,0.1c-0.1,0-0.3,0-0.4-0.1
			c-0.1,0-0.3-0.1-0.5-0.1c-0.2,0-0.4,0-0.6,0c-0.2,0-0.4,0.1-0.6,0.1c-0.2,0.1-0.4,0.2-0.5,0.3c-0.3,0.3-0.5,0.7-0.6,1.1
			c-0.1,0.4,0,0.8,0.2,1.2c0.1,0.3,0.1,0.5-0.1,0.8c-0.1,0.1-0.2,0.2-0.4,0.3c-0.2,0.1-0.4,0.2-0.6,0.3c-0.2,0.1-0.4,0.2-0.7,0.2
			C32.5,38,32.3,38,32.2,38c-0.1,0-0.2,0-0.3-0.1c-0.1-0.1-0.2-0.2-0.2-0.3h0c-0.1-0.4-0.4-0.8-0.8-1.1C30.5,36.2,30,36,29.6,36
			c-0.5,0-0.9,0.1-1.2,0.5c-0.4,0.3-0.6,0.7-0.8,1.1c-0.1,0.2-0.2,0.3-0.3,0.3C27.1,38,26.9,38,26.8,38c-0.2,0-0.4,0-0.6-0.1
			c-0.2-0.1-0.5-0.1-0.7-0.3c-0.2-0.1-0.5-0.2-0.6-0.3c-0.2-0.1-0.3-0.3-0.4-0.4c-0.1-0.1-0.1-0.2-0.1-0.3c0-0.1,0-0.3,0.1-0.5
			c0.1-0.3,0.2-0.7,0.2-1.1c0-0.4-0.2-0.8-0.5-1.1c-0.2-0.2-0.4-0.3-0.7-0.4c-0.3-0.1-0.5-0.1-0.8-0.1c-0.3,0-0.6,0.1-0.9,0.2
			c-0.2,0.1-0.4,0-0.6,0c-0.1-0.1-0.3-0.2-0.4-0.4c-0.1-0.2-0.2-0.4-0.3-0.6c-0.1-0.2-0.2-0.5-0.2-0.7c-0.1-0.2-0.1-0.5,0-0.6
			c0-0.3,0.2-0.5,0.4-0.6c0.4-0.2,0.8-0.4,1.1-0.8c0.3-0.4,0.5-0.8,0.5-1.2c0-0.5-0.2-0.9-0.5-1.2c-0.3-0.3-0.7-0.6-1.1-0.8
			c-0.1,0-0.2-0.1-0.3-0.3c-0.1-0.1-0.1-0.3-0.1-0.5c0-0.2,0-0.4,0.1-0.6c0.1-0.2,0.1-0.4,0.2-0.6c0.1-0.2,0.2-0.4,0.3-0.6
			c0.1-0.2,0.2-0.3,0.4-0.4c0.1-0.1,0.2-0.1,0.3-0.1c0.1,0,0.2,0,0.3,0.1c0.4,0.2,0.8,0.2,1.3,0.1c0.4-0.1,0.8-0.3,1.2-0.6
			c0.2-0.2,0.3-0.4,0.4-0.6c0.1-0.2,0.1-0.5,0.1-0.7c0-0.2,0-0.4,0-0.6c0-0.2,0-0.3,0-0.4c0-0.1,0-0.2-0.1-0.3c0-0.1,0-0.2,0-0.3
			c0.1-0.2,0.2-0.3,0.4-0.5c0.2-0.1,0.4-0.2,0.7-0.3c0.2-0.1,0.5-0.2,0.7-0.2c0.2,0,0.4-0.1,0.6-0.1c0.2,0,0.3,0.1,0.4,0.2
			c0.1,0.1,0.2,0.2,0.2,0.3c0.1,0.4,0.4,0.7,0.7,1c0.3,0.3,0.7,0.4,1.2,0.4c0.5,0,0.9-0.1,1.3-0.4c0.4-0.3,0.6-0.6,0.8-1
			c0.1-0.1,0.1-0.2,0.3-0.3c0.1-0.1,0.2-0.2,0.4-0.2c0.2,0,0.4,0,0.6,0.1c0.2,0.1,0.4,0.1,0.7,0.2c0.2,0.1,0.4,0.2,0.6,0.4
			c0.2,0.1,0.3,0.3,0.4,0.5c0.1,0.1,0.1,0.2,0.1,0.3c0,0.1-0.1,0.2-0.1,0.3c-0.2,0.4-0.2,0.8-0.2,1.2c0.1,0.4,0.3,0.8,0.6,1.1
			c0.3,0.3,0.7,0.5,1.2,0.5c0.5,0,0.9,0,1.3-0.2c0.1-0.1,0.2-0.1,0.4-0.1c0.1,0,0.3,0.1,0.4,0.2c0.2,0.2,0.4,0.5,0.5,0.8
			c0.1,0.4,0.3,0.8,0.3,1.2c0,0.2,0,0.4-0.1,0.5c-0.1,0.1-0.2,0.2-0.3,0.3c-0.4,0.1-0.8,0.4-1.1,0.8c-0.3,0.4-0.4,0.8-0.4,1.3
			C37.1,29.1,37.2,29.5,37.4,29.8L37.4,29.8z M32.7,25.5c-0.4-0.4-0.9-0.7-1.4-0.9c-0.5-0.2-1.1-0.3-1.7-0.3c-0.6,0-1.2,0.1-1.7,0.3
			c-0.5,0.2-1,0.5-1.4,0.9c-0.4,0.4-0.7,0.9-0.9,1.4c-0.2,0.5-0.3,1.1-0.3,1.7c0,0.6,0.1,1.2,0.3,1.7c0.2,0.5,0.6,1,0.9,1.4
			c0.4,0.4,0.9,0.7,1.4,0.9c0.5,0.2,1.1,0.3,1.7,0.3c0.6,0,1.2-0.1,1.7-0.3c0.5-0.2,1-0.5,1.4-0.9c0.4-0.4,0.7-0.9,0.9-1.4
			c0.2-0.5,0.3-1.1,0.3-1.7c0-0.6-0.1-1.2-0.3-1.7C33.4,26.4,33.1,25.9,32.7,25.5L32.7,25.5z M32.7,25.5"/>
		<path class="st1" d="M22.4,35c-0.2-0.2-0.5-0.4-0.9-0.5c-0.3-0.1-0.7-0.1-1-0.1c-0.4,0-0.7,0.1-1.1,0.2c-0.2,0.1-0.5,0-0.7,0
			c-0.2-0.1-0.4-0.2-0.5-0.5c-0.2-0.2-0.3-0.5-0.4-0.8c-0.1-0.3-0.2-0.6-0.3-0.9c-0.1-0.3-0.1-0.6,0-0.8c0-0.4,0.2-0.6,0.5-0.7
			c0.5-0.2,1-0.5,1.4-1c0.4-0.5,0.6-1,0.6-1.5c0-0.6-0.2-1.1-0.6-1.5c-0.1-0.1-0.2-0.2-0.3-0.3H1v9.3h21.9
			C22.8,35.5,22.7,35.2,22.4,35L22.4,35z M5.6,32.7c-0.8,0-1.5-0.7-1.5-1.5c0-0.8,0.7-1.5,1.5-1.5c0.8,0,1.5,0.7,1.5,1.5
			C7.1,32,6.4,32.7,5.6,32.7L5.6,32.7z M5.6,32.7"/>
	</g>
</g>
</svg>
