<?xml version="1.0" encoding="utf-8"?>
<!-- Generator: Adobe Illustrator 21.0.0, SVG Export Plug-In . SVG Version: 6.00 Build 0)  -->
<svg version="1.1" id="图层_1" xmlns="http://www.w3.org/2000/svg" xmlns:xlink="http://www.w3.org/1999/xlink" x="0px" y="0px"
	 viewBox="0 0 40 40" style="enable-background:new 0 0 40 40;" xml:space="preserve">
<style type="text/css">
	.st0{display:none;fill:none;}
	.st1{fill:#146AFB;}
	.st2{fill:#FFFFFF;}
</style>
<rect class="st0" width="40" height="40"/>
<g>
	<path class="st1" d="M38.2,35.7c0-2.2-1.8-3.7-3.7-3.7H5.3c-0.7,0-1.8-0.7-1.8-1.8s0.7-1.5,1.8-1.5h5.1c0.4,0,1.1-0.7,1.1-1.1
		c0-0.4-0.4-1.1-1.1-1.1H5.3c-2.2,0-3.7,1.8-3.7,3.7c0,2.2,1.8,3.7,3.7,3.7h28.9c0.7,0,1.8,0.4,1.8,1.5c0,1.5-1.1,1.8-1.8,1.8H8.6
		c-0.4,0-1.1,0.4-1.1,1.1c0,0.7,0.4,1.1,1.1,1.1h25.6c1.1,0,2.2-0.4,2.9-1.1C38.2,37.2,38.6,36.5,38.2,35.7L38.2,35.7z M38.2,35.7"
		/>
	<path class="st1" d="M29.8,10.5c0,5.5-9.9,17.2-9.9,17.2S10.1,16,10.1,10.5c0-5.5,4.4-9.9,9.9-9.9C25.4,0.6,29.8,5,29.8,10.5
		L29.8,10.5z M29.8,10.5"/>
	<path class="st2" d="M15.9,10.1c0,2,1.7,4,4,4c2.3,0,4-1.7,4-4s-1.7-4-4-4C17.6,6.1,15.9,7.9,15.9,10.1L15.9,10.1z M15.9,10.1"/>
</g>
</svg>
