<?xml version="1.0" encoding="utf-8"?>
<!-- Generator: Adobe Illustrator 21.0.0, SVG Export Plug-In . SVG Version: 6.00 Build 0)  -->
<svg version="1.1" id="图层_1" xmlns="http://www.w3.org/2000/svg" xmlns:xlink="http://www.w3.org/1999/xlink" x="0px" y="0px"
	 viewBox="0 0 36 36" style="enable-background:new 0 0 36 36;" xml:space="preserve">
<style type="text/css">
	.st0{fill:#1476FB;}
</style>
<g>
	<path class="st0" d="M35.8,34.7l-6.4-6.6c2.6-2.9,4.1-6.8,4.1-11c0-9.2-7.5-16.7-16.7-16.7S0,7.9,0,17.1c0,9.2,7.5,16.7,16.7,16.7
		c4.5,0,8.6-1.8,11.6-4.7l6.4,6.6c0.1,0.1,0.3,0.2,0.5,0.2c0.2,0,0.4-0.1,0.5-0.2C36.1,35.5,36.1,35,35.8,34.7L35.8,34.7z
		 M16.8,32.4c-8.4,0-15.3-6.8-15.3-15.3c0-8.4,6.8-15.3,15.3-15.3C25.2,1.9,32,8.7,32,17.1C32,25.5,25.2,32.4,16.8,32.4L16.8,32.4z
		 M16.8,32.4"/>
	<path class="st0" d="M11.5,6.8C10.9,7.1,10.3,7.5,9.8,8c-2.1,1.7-3.5,4-4.1,6.5c-0.2,0.7-0.2,1.5-0.2,2.3c0,0.3,0.2,0.6,0.6,0.6
		c0.3,0,0.6-0.2,0.6-0.6c0-0.7,0.1-1.4,0.2-2c0.5-2.3,1.8-4.3,3.7-5.9c0.5-0.4,1-0.7,1.6-1.1c0.3-0.1,0.4-0.5,0.2-0.8
		C12.1,6.7,11.8,6.7,11.5,6.8L11.5,6.8z M11.5,6.8"/>
</g>
</svg>
