<?xml version="1.0" encoding="utf-8"?>
<!-- Generator: Adobe Illustrator 21.0.0, SVG Export Plug-In . SVG Version: 6.00 Build 0)  -->
<svg version="1.1" id="图层_1" xmlns="http://www.w3.org/2000/svg" xmlns:xlink="http://www.w3.org/1999/xlink" x="0px" y="0px"
	 viewBox="0 0 36 36" style="enable-background:new 0 0 36 36;" xml:space="preserve">
<style type="text/css">
	.st0{fill:#1476FB;}
</style>
<g>
	<path class="st0" d="M9.3,5.7c-0.5,0-0.9-0.4-0.9-0.9V0.9C8.4,0.4,8.8,0,9.3,0h0c0.5,0,0.9,0.4,0.9,0.9v3.9
		C10.2,5.3,9.8,5.7,9.3,5.7L9.3,5.7z M26.6,5.7c-0.5,0-0.9-0.4-0.9-0.9V0.9c0-0.5,0.4-0.9,0.9-0.9h0c0.5,0,0.9,0.4,0.9,0.9v3.9
		C27.5,5.3,27.1,5.7,26.6,5.7L26.6,5.7z M16.5,27.9L16.5,27.9c-0.4,0.4-0.9,0.4-1.3,0l-5-5c-0.3-0.3-0.3-0.9,0-1.3l0,0
		c0.3-0.3,0.9-0.3,1.3,0l5,5C16.9,27,16.9,27.5,16.5,27.9L16.5,27.9z M16.5,27.9"/>
	<path class="st0" d="M15.3,27.9L15.3,27.9c-0.4-0.4-0.4-0.9,0-1.3l9.2-9.2c0.3-0.3,0.9-0.3,1.3,0l0,0c0.3,0.3,0.3,0.9,0,1.3
		l-9.2,9.2C16.2,28.2,15.6,28.2,15.3,27.9L15.3,27.9z M15.3,27.9"/>
	<path class="st0" d="M33.7,35.9H2.3c-0.7,0-1.4-0.6-1.4-1.4v-31c0-0.8,0.6-1.4,1.4-1.4h31.4c0.7,0,1.4,0.6,1.4,1.4v31
		C35,35.3,34.4,35.9,33.7,35.9L33.7,35.9z M2.6,34.3h30.8V3.9H2.6V34.3z M2.6,34.3"/>
	<rect x="1.7" y="9.9" class="st0" width="33.1" height="1.7"/>
</g>
</svg>
