<?xml version="1.0" encoding="utf-8"?>
<!-- Generator: Adobe Illustrator 21.0.0, SVG Export Plug-In . SVG Version: 6.00 Build 0)  -->
<svg version="1.1" id="图层_1" xmlns="http://www.w3.org/2000/svg" xmlns:xlink="http://www.w3.org/1999/xlink" x="0px" y="0px"
	 viewBox="0 0 40 40" style="enable-background:new 0 0 40 40;" xml:space="preserve">
<style type="text/css">
	.st0{display:none;fill:none;}
	.st1{fill:#146AFB;}
</style>
<rect class="st0" width="40" height="40"/>
<g>
	<path class="st1" d="M33.6,1H6.4C3.4,1,1,3.4,1,6.4v27.1c0,3,2.4,5.4,5.4,5.4h27.1c3,0,5.4-2.4,5.4-5.4V6.4C39,3.4,36.6,1,33.6,1
		L33.6,1z M12.9,30.2c-2.6,0-4.8-2.1-4.8-4.8c0-2.6,2.1-4.8,4.8-4.8c2.6,0,4.8,2.1,4.8,4.8C17.6,28.1,15.5,30.2,12.9,30.2L12.9,30.2
		z M17.9,12.8l-5.4,5.4c-0.5,0.5-1.4,0.5-1.9,0l-2.7-2.7c-0.5-0.5-0.5-1.4,0-1.9c0.5-0.5,1.4-0.5,1.9,0l1.8,1.8l4.5-4.5
		c0.5-0.5,1.4-0.5,1.9,0C18.4,11.4,18.4,12.3,17.9,12.8L17.9,12.8z M31.9,26.8H21c-0.7,0-1.3-0.6-1.3-1.3c0-0.7,0.6-1.3,1.3-1.3
		h10.9c0.7,0,1.3,0.6,1.3,1.3C33.2,26.2,32.6,26.8,31.9,26.8L31.9,26.8z M31.9,15.9H21c-0.7,0-1.3-0.6-1.3-1.3
		c0-0.7,0.6-1.3,1.3-1.3h10.9c0.7,0,1.3,0.6,1.3,1.3C33.2,15.3,32.6,15.9,31.9,15.9L31.9,15.9z M31.9,15.9"/>
	<path class="st1" d="M11.4,24c-0.8,0.8-0.8,2.1,0,2.9c0.8,0.8,2.1,0.8,2.9,0c0.4-0.4,0.6-0.9,0.6-1.4c0-0.5-0.2-1.1-0.6-1.4
		C13.5,23.2,12.2,23.2,11.4,24L11.4,24z M11.4,24"/>
</g>
</svg>
