<?xml version="1.0" standalone="no"?><!DOCTYPE svg PUBLIC "-//W3C//DTD SVG 1.1//EN" "http://www.w3.org/Graphics/SVG/1.1/DTD/svg11.dtd"><svg t="1575252860266" class="icon" viewBox="0 0 1024 1024" version="1.1" xmlns="http://www.w3.org/2000/svg" p-id="5641" xmlns:xlink="http://www.w3.org/1999/xlink" width="32" height="32"><defs><style type="text/css"></style></defs><path d="M269.44 256l23.296-75.381333A74.666667 74.666667 0 0 1 364.074667 128h295.850666a74.666667 74.666667 0 0 1 71.338667 52.618667L754.56 256H821.333333c64.8 0 117.333333 52.533333 117.333334 117.333333v426.666667c0 64.8-52.533333 117.333333-117.333334 117.333333H202.666667c-64.8 0-117.333333-52.533333-117.333334-117.333333V373.333333c0-64.8 52.533333-117.333333 117.333334-117.333333h66.773333z m23.605333 64H202.666667a53.333333 53.333333 0 0 0-53.333334 53.333333v426.666667a53.333333 53.333333 0 0 0 53.333334 53.333333h618.666666a53.333333 53.333333 0 0 0 53.333334-53.333333V373.333333a53.333333 53.333333 0 0 0-53.333334-53.333333h-90.378666a32 32 0 0 1-30.570667-22.549333l-30.272-97.930667a10.666667 10.666667 0 0 0-10.186667-7.52H364.074667a10.666667 10.666667 0 0 0-10.186667 7.52l-30.272 97.92A32 32 0 0 1 293.045333 320zM512 725.333333c-88.362667 0-160-71.637333-160-160 0-88.362667 71.637333-160 160-160 88.362667 0 160 71.637333 160 160 0 88.362667-71.637333 160-160 160z m0-64a96 96 0 1 0 0-192 96 96 0 0 0 0 192z" p-id="5642" fill="#bfbfbf"></path></svg>